<mxfile host="app.diagrams.net" modified="2021-11-11T20:06:58.486Z" agent="5.0 (Windows NT 10.0; Win64; x64) AppleWebKit/537.36 (KHTML, like Gecko) Chrome/95.0.4638.69 Safari/537.36 Edg/95.0.1020.44" etag="07_t6DX72bUA_ZIAIa2t" version="15.7.3" type="github">
  <diagram id="nEDZRWEvv-bu_UUYDsP_" name="Page-1">
    <mxGraphModel dx="1422" dy="794" grid="1" gridSize="10" guides="1" tooltips="1" connect="1" arrows="1" fold="1" page="1" pageScale="1" pageWidth="850" pageHeight="1100" math="0" shadow="0">
      <root>
        <mxCell id="0" />
        <mxCell id="1" parent="0" />
        <mxCell id="f2Sus05H8nMFdNZAMqv4-1" value="&lt;b&gt;&lt;font color=&quot;#7ea6e0&quot;&gt;Serverless Architecture Scheme - URL Shortner&amp;nbsp;&lt;/font&gt;&lt;/b&gt;" style="rounded=0;html=1;verticalAlign=top;labelPosition=center;verticalLabelPosition=bottom;align=center;" vertex="1" parent="1">
          <mxGeometry x="40" y="80" width="970" height="540" as="geometry" />
        </mxCell>
        <mxCell id="f2Sus05H8nMFdNZAMqv4-2" value="" style="rounded=0;whiteSpace=wrap;html=1;fillColor=#CCCCCC;" vertex="1" parent="1">
          <mxGeometry x="229" y="100" width="760" height="500" as="geometry" />
        </mxCell>
        <mxCell id="f2Sus05H8nMFdNZAMqv4-3" style="edgeStyle=elbowEdgeStyle;rounded=0;orthogonalLoop=1;jettySize=auto;html=1;exitX=0.5;exitY=0;exitDx=0;exitDy=0;fontSize=9;startArrow=none;startFill=0;" edge="1" parent="1" source="f2Sus05H8nMFdNZAMqv4-4" target="f2Sus05H8nMFdNZAMqv4-2">
          <mxGeometry relative="1" as="geometry" />
        </mxCell>
        <mxCell id="f2Sus05H8nMFdNZAMqv4-4" value="" style="rounded=0;whiteSpace=wrap;html=1;labelBorderColor=none;rotation=90;dashed=1;fillColor=#CCCCCC;" vertex="1" parent="1">
          <mxGeometry x="585.6" y="202" width="468.1" height="299.4" as="geometry" />
        </mxCell>
        <mxCell id="f2Sus05H8nMFdNZAMqv4-5" value="" style="rounded=0;whiteSpace=wrap;html=1;labelBorderColor=none;rotation=90;dashed=1;fillColor=#CCCCCC;" vertex="1" parent="1">
          <mxGeometry x="376.73" y="289.66" width="222.68" height="100.37" as="geometry" />
        </mxCell>
        <mxCell id="f2Sus05H8nMFdNZAMqv4-6" value="" style="edgeStyle=orthogonalEdgeStyle;rounded=0;orthogonalLoop=1;jettySize=auto;html=1;startArrow=classic;startFill=1;" edge="1" parent="1" source="f2Sus05H8nMFdNZAMqv4-7" target="f2Sus05H8nMFdNZAMqv4-9">
          <mxGeometry relative="1" as="geometry" />
        </mxCell>
        <mxCell id="f2Sus05H8nMFdNZAMqv4-7" value="" style="sketch=0;pointerEvents=1;shadow=0;dashed=0;html=1;strokeColor=none;labelPosition=center;verticalLabelPosition=bottom;verticalAlign=top;align=center;fillColor=#505050;shape=mxgraph.mscae.intune.user_group" vertex="1" parent="1">
          <mxGeometry x="50" y="320" width="50" height="37" as="geometry" />
        </mxCell>
        <mxCell id="f2Sus05H8nMFdNZAMqv4-8" value="" style="edgeStyle=orthogonalEdgeStyle;rounded=0;orthogonalLoop=1;jettySize=auto;html=1;startArrow=classic;startFill=1;" edge="1" parent="1" source="f2Sus05H8nMFdNZAMqv4-9" target="f2Sus05H8nMFdNZAMqv4-2">
          <mxGeometry relative="1" as="geometry">
            <Array as="points">
              <mxPoint x="230" y="330" />
              <mxPoint x="230" y="330" />
            </Array>
          </mxGeometry>
        </mxCell>
        <mxCell id="f2Sus05H8nMFdNZAMqv4-9" value="Internet" style="sketch=0;outlineConnect=0;fontColor=#232F3E;gradientColor=none;strokeColor=#232F3E;fillColor=#ffffff;dashed=0;verticalLabelPosition=bottom;verticalAlign=top;align=center;html=1;fontSize=12;fontStyle=0;aspect=fixed;shape=mxgraph.aws4.resourceIcon;resIcon=mxgraph.aws4.internet;" vertex="1" parent="1">
          <mxGeometry x="136" y="308.5" width="60" height="60" as="geometry" />
        </mxCell>
        <mxCell id="f2Sus05H8nMFdNZAMqv4-10" value="" style="outlineConnect=0;dashed=0;verticalLabelPosition=bottom;verticalAlign=top;align=center;html=1;shape=mxgraph.aws3.cloud_2;fillColor=#F58534;gradientColor=none;" vertex="1" parent="1">
          <mxGeometry x="210" y="90" width="60" height="50" as="geometry" />
        </mxCell>
        <mxCell id="f2Sus05H8nMFdNZAMqv4-11" value="Route 53" style="sketch=0;points=[[0,0,0],[0.25,0,0],[0.5,0,0],[0.75,0,0],[1,0,0],[0,1,0],[0.25,1,0],[0.5,1,0],[0.75,1,0],[1,1,0],[0,0.25,0],[0,0.5,0],[0,0.75,0],[1,0.25,0],[1,0.5,0],[1,0.75,0]];outlineConnect=0;fontColor=#232F3E;gradientColor=#945DF2;gradientDirection=north;fillColor=#5A30B5;strokeColor=#ffffff;dashed=0;verticalLabelPosition=bottom;verticalAlign=top;align=center;html=1;fontSize=12;fontStyle=0;aspect=fixed;shape=mxgraph.aws4.resourceIcon;resIcon=mxgraph.aws4.route_53;whiteSpace=wrap;labelBorderColor=none;" vertex="1" parent="1">
          <mxGeometry x="290" y="160" width="78" height="78" as="geometry" />
        </mxCell>
        <mxCell id="f2Sus05H8nMFdNZAMqv4-12" value="CloudFront" style="sketch=0;points=[[0,0,0],[0.25,0,0],[0.5,0,0],[0.75,0,0],[1,0,0],[0,1,0],[0.25,1,0],[0.5,1,0],[0.75,1,0],[1,1,0],[0,0.25,0],[0,0.5,0],[0,0.75,0],[1,0.25,0],[1,0.5,0],[1,0.75,0]];outlineConnect=0;fontColor=#232F3E;gradientColor=#945DF2;gradientDirection=north;fillColor=#5A30B5;strokeColor=#ffffff;dashed=0;verticalLabelPosition=bottom;verticalAlign=top;align=center;html=1;fontSize=12;fontStyle=0;aspect=fixed;shape=mxgraph.aws4.resourceIcon;resIcon=mxgraph.aws4.cloudfront;" vertex="1" parent="1">
          <mxGeometry x="290" y="460" width="78" height="78" as="geometry" />
        </mxCell>
        <mxCell id="f2Sus05H8nMFdNZAMqv4-13" value="" style="edgeStyle=elbowEdgeStyle;rounded=0;orthogonalLoop=1;jettySize=auto;html=1;fontSize=9;startArrow=none;startFill=0;exitX=0.554;exitY=0.005;exitDx=0;exitDy=0;exitPerimeter=0;" edge="1" parent="1" source="f2Sus05H8nMFdNZAMqv4-5" target="f2Sus05H8nMFdNZAMqv4-17">
          <mxGeometry relative="1" as="geometry" />
        </mxCell>
        <mxCell id="f2Sus05H8nMFdNZAMqv4-14" value="API Gateway" style="sketch=0;points=[[0,0,0],[0.25,0,0],[0.5,0,0],[0.75,0,0],[1,0,0],[0,1,0],[0.25,1,0],[0.5,1,0],[0.75,1,0],[1,1,0],[0,0.25,0],[0,0.5,0],[0,0.75,0],[1,0.25,0],[1,0.5,0],[1,0.75,0]];outlineConnect=0;fontColor=#232F3E;gradientColor=#945DF2;gradientDirection=north;fillColor=#5A30B5;strokeColor=#ffffff;dashed=0;verticalLabelPosition=bottom;verticalAlign=top;align=center;html=1;fontSize=12;fontStyle=0;aspect=fixed;shape=mxgraph.aws4.resourceIcon;resIcon=mxgraph.aws4.api_gateway;labelBorderColor=none;" vertex="1" parent="1">
          <mxGeometry x="450" y="250" width="78" height="78" as="geometry" />
        </mxCell>
        <mxCell id="f2Sus05H8nMFdNZAMqv4-15" value="Rest Endpoint" style="sketch=0;outlineConnect=0;fontColor=#232F3E;gradientColor=none;fillColor=#4D27AA;strokeColor=none;dashed=0;verticalLabelPosition=bottom;verticalAlign=top;align=center;html=1;fontSize=12;fontStyle=0;aspect=fixed;pointerEvents=1;shape=mxgraph.aws4.endpoint;labelBorderColor=none;" vertex="1" parent="1">
          <mxGeometry x="470" y="380" width="38" height="38" as="geometry" />
        </mxCell>
        <mxCell id="f2Sus05H8nMFdNZAMqv4-16" value="" style="edgeStyle=elbowEdgeStyle;rounded=0;orthogonalLoop=1;jettySize=auto;html=1;fontSize=9;startArrow=none;startFill=0;entryX=0.5;entryY=1;entryDx=0;entryDy=0;" edge="1" parent="1" source="f2Sus05H8nMFdNZAMqv4-17" target="f2Sus05H8nMFdNZAMqv4-4">
          <mxGeometry relative="1" as="geometry" />
        </mxCell>
        <mxCell id="f2Sus05H8nMFdNZAMqv4-17" value="" style="sketch=0;points=[[0,0,0],[0.25,0,0],[0.5,0,0],[0.75,0,0],[1,0,0],[0,1,0],[0.25,1,0],[0.5,1,0],[0.75,1,0],[1,1,0],[0,0.25,0],[0,0.5,0],[0,0.75,0],[1,0.25,0],[1,0.5,0],[1,0.75,0]];outlineConnect=0;fontColor=#232F3E;gradientColor=#F78E04;gradientDirection=north;fillColor=#D05C17;strokeColor=#ffffff;dashed=0;verticalLabelPosition=bottom;verticalAlign=top;align=center;html=1;fontSize=12;fontStyle=0;aspect=fixed;shape=mxgraph.aws4.resourceIcon;resIcon=mxgraph.aws4.lambda;labelBorderColor=none;" vertex="1" parent="1">
          <mxGeometry x="570" y="312.7" width="78" height="78" as="geometry" />
        </mxCell>
        <mxCell id="f2Sus05H8nMFdNZAMqv4-18" value="" style="edgeStyle=orthogonalEdgeStyle;rounded=0;orthogonalLoop=1;jettySize=auto;html=1;startArrow=none;startFill=0;entryX=-0.006;entryY=0.513;entryDx=0;entryDy=0;entryPerimeter=0;fillColor=#d5e8d4;strokeColor=#82b366;" edge="1" parent="1" source="f2Sus05H8nMFdNZAMqv4-19">
          <mxGeometry relative="1" as="geometry">
            <mxPoint x="740" y="300" as="sourcePoint" />
            <mxPoint x="825.9978677940398" y="170.014" as="targetPoint" />
            <Array as="points">
              <mxPoint x="766" y="300" />
              <mxPoint x="766" y="170" />
            </Array>
          </mxGeometry>
        </mxCell>
        <mxCell id="f2Sus05H8nMFdNZAMqv4-19" value="Lambda&amp;nbsp;&lt;br&gt;Node.js&lt;br&gt;(Index.js)" style="sketch=0;outlineConnect=0;fontColor=#232F3E;gradientColor=none;fillColor=#D45B07;strokeColor=none;dashed=0;verticalLabelPosition=bottom;verticalAlign=top;align=center;html=1;fontSize=12;fontStyle=0;aspect=fixed;pointerEvents=1;shape=mxgraph.aws4.lambda_function;labelBorderColor=none;" vertex="1" parent="1">
          <mxGeometry x="682" y="280" width="48" height="48" as="geometry" />
        </mxCell>
        <mxCell id="f2Sus05H8nMFdNZAMqv4-20" value="Lambda Content&lt;br&gt;Storage html+img" style="sketch=0;outlineConnect=0;fontColor=#232F3E;gradientColor=none;fillColor=#3F8624;strokeColor=none;dashed=0;verticalLabelPosition=bottom;verticalAlign=top;align=center;html=1;fontSize=12;fontStyle=0;aspect=fixed;pointerEvents=1;shape=mxgraph.aws4.s3_object_lambda;labelBorderColor=none;" vertex="1" parent="1">
          <mxGeometry x="830" y="130" width="53" height="78" as="geometry" />
        </mxCell>
        <mxCell id="f2Sus05H8nMFdNZAMqv4-21" value="" style="edgeStyle=elbowEdgeStyle;rounded=0;orthogonalLoop=1;jettySize=auto;html=1;fontSize=9;startArrow=none;startFill=0;fillColor=#fff2cc;strokeColor=#FFFF99;" edge="1" parent="1" source="f2Sus05H8nMFdNZAMqv4-22" target="f2Sus05H8nMFdNZAMqv4-25">
          <mxGeometry relative="1" as="geometry" />
        </mxCell>
        <mxCell id="f2Sus05H8nMFdNZAMqv4-22" value="Dynamo DB" style="sketch=0;points=[[0,0,0],[0.25,0,0],[0.5,0,0],[0.75,0,0],[1,0,0],[0,1,0],[0.25,1,0],[0.5,1,0],[0.75,1,0],[1,1,0],[0,0.25,0],[0,0.5,0],[0,0.75,0],[1,0.25,0],[1,0.5,0],[1,0.75,0]];outlineConnect=0;fontColor=#232F3E;gradientColor=#4D72F3;gradientDirection=north;fillColor=#3334B9;strokeColor=#ffffff;dashed=0;verticalLabelPosition=bottom;verticalAlign=top;align=center;html=1;fontSize=12;fontStyle=0;aspect=fixed;shape=mxgraph.aws4.resourceIcon;resIcon=mxgraph.aws4.dynamodb;labelBorderColor=none;" vertex="1" parent="1">
          <mxGeometry x="830" y="340" width="78" height="78" as="geometry" />
        </mxCell>
        <mxCell id="f2Sus05H8nMFdNZAMqv4-23" value="" style="edgeStyle=elbowEdgeStyle;rounded=0;orthogonalLoop=1;jettySize=auto;html=1;fontSize=9;startArrow=none;startFill=0;fillColor=#fa6800;strokeColor=#C73500;" edge="1" parent="1" source="f2Sus05H8nMFdNZAMqv4-24" target="f2Sus05H8nMFdNZAMqv4-25">
          <mxGeometry relative="1" as="geometry" />
        </mxCell>
        <mxCell id="f2Sus05H8nMFdNZAMqv4-24" value="DynamoDB" style="sketch=0;points=[[0,0,0],[0.25,0,0],[0.5,0,0],[0.75,0,0],[1,0,0],[0,1,0],[0.25,1,0],[0.5,1,0],[0.75,1,0],[1,1,0],[0,0.25,0],[0,0.5,0],[0,0.75,0],[1,0.25,0],[1,0.5,0],[1,0.75,0]];outlineConnect=0;fontColor=#232F3E;gradientColor=#4D72F3;gradientDirection=north;fillColor=#3334B9;strokeColor=#ffffff;dashed=0;verticalLabelPosition=bottom;verticalAlign=top;align=center;html=1;fontSize=12;fontStyle=0;aspect=fixed;shape=mxgraph.aws4.resourceIcon;resIcon=mxgraph.aws4.dynamodb;labelBorderColor=none;" vertex="1" parent="1">
          <mxGeometry x="726" y="460" width="78" height="78" as="geometry" />
        </mxCell>
        <mxCell id="f2Sus05H8nMFdNZAMqv4-25" value="URL table" style="sketch=0;outlineConnect=0;fontColor=#232F3E;gradientColor=none;fillColor=#2E27AD;strokeColor=none;dashed=0;verticalLabelPosition=bottom;verticalAlign=top;align=center;html=1;fontSize=12;fontStyle=0;aspect=fixed;pointerEvents=1;shape=mxgraph.aws4.table;labelBorderColor=none;" vertex="1" parent="1">
          <mxGeometry x="830" y="460" width="78" height="78" as="geometry" />
        </mxCell>
        <mxCell id="f2Sus05H8nMFdNZAMqv4-26" value="" style="edgeStyle=orthogonalEdgeStyle;rounded=0;orthogonalLoop=1;jettySize=auto;html=1;startArrow=none;startFill=0;entryX=0;entryY=0.5;entryDx=0;entryDy=0;entryPerimeter=0;" edge="1" parent="1" target="f2Sus05H8nMFdNZAMqv4-11">
          <mxGeometry relative="1" as="geometry">
            <mxPoint x="229" y="330" as="sourcePoint" />
            <mxPoint x="281" y="348.47058823529414" as="targetPoint" />
            <Array as="points">
              <mxPoint x="229" y="330" />
              <mxPoint x="260" y="330" />
              <mxPoint x="260" y="199" />
            </Array>
          </mxGeometry>
        </mxCell>
        <mxCell id="f2Sus05H8nMFdNZAMqv4-27" value="" style="edgeStyle=orthogonalEdgeStyle;rounded=0;orthogonalLoop=1;jettySize=auto;html=1;startArrow=none;startFill=0;entryX=0;entryY=0.5;entryDx=0;entryDy=0;entryPerimeter=0;exitX=0;exitY=0.5;exitDx=0;exitDy=0;" edge="1" parent="1" source="f2Sus05H8nMFdNZAMqv4-2" target="f2Sus05H8nMFdNZAMqv4-12">
          <mxGeometry relative="1" as="geometry">
            <mxPoint x="230" y="350" as="sourcePoint" />
            <mxPoint x="287" y="499" as="targetPoint" />
            <Array as="points">
              <mxPoint x="260" y="350" />
              <mxPoint x="260" y="499" />
            </Array>
          </mxGeometry>
        </mxCell>
        <mxCell id="f2Sus05H8nMFdNZAMqv4-28" value="&lt;font style=&quot;font-size: 11px&quot;&gt;Static Content fetching&lt;br&gt;&amp;nbsp;for the Website&lt;/font&gt;" style="text;html=1;resizable=0;autosize=1;align=center;verticalAlign=middle;points=[];fillColor=none;strokeColor=none;rounded=0;dashed=1;labelBorderColor=none;rotation=270;" vertex="1" parent="1">
          <mxGeometry x="684" y="215" width="130" height="30" as="geometry" />
        </mxCell>
        <mxCell id="f2Sus05H8nMFdNZAMqv4-29" value="" style="edgeStyle=orthogonalEdgeStyle;rounded=0;orthogonalLoop=1;jettySize=auto;html=1;startArrow=none;startFill=0;fillColor=#fff2cc;strokeColor=#FFFF99;" edge="1" parent="1" source="f2Sus05H8nMFdNZAMqv4-19" target="f2Sus05H8nMFdNZAMqv4-20">
          <mxGeometry relative="1" as="geometry">
            <mxPoint x="747.9994540615546" y="314" as="sourcePoint" />
            <mxPoint x="839.9978677940401" y="180.014" as="targetPoint" />
            <Array as="points">
              <mxPoint x="940" y="310" />
              <mxPoint x="940" y="169" />
            </Array>
          </mxGeometry>
        </mxCell>
        <mxCell id="f2Sus05H8nMFdNZAMqv4-30" value="" style="edgeStyle=orthogonalEdgeStyle;rounded=0;orthogonalLoop=1;jettySize=auto;html=1;startArrow=none;startFill=0;fillColor=#fa6800;strokeColor=#C73500;" edge="1" parent="1" source="f2Sus05H8nMFdNZAMqv4-19" target="f2Sus05H8nMFdNZAMqv4-24">
          <mxGeometry relative="1" as="geometry">
            <mxPoint x="747.9994540615546" y="324" as="sourcePoint" />
            <mxPoint x="892.6878776738736" y="179" as="targetPoint" />
            <Array as="points">
              <mxPoint x="765" y="320" />
            </Array>
          </mxGeometry>
        </mxCell>
        <mxCell id="f2Sus05H8nMFdNZAMqv4-31" value="" style="edgeStyle=orthogonalEdgeStyle;rounded=0;orthogonalLoop=1;jettySize=auto;html=1;startArrow=none;startFill=0;fillColor=#fff2cc;strokeColor=#FFFF99;entryX=0.5;entryY=0;entryDx=0;entryDy=0;entryPerimeter=0;fontStyle=1" edge="1" parent="1" target="f2Sus05H8nMFdNZAMqv4-22">
          <mxGeometry relative="1" as="geometry">
            <mxPoint x="738" y="310" as="sourcePoint" />
            <mxPoint x="882.6878776738736" y="169.5" as="targetPoint" />
            <Array as="points">
              <mxPoint x="738" y="310" />
              <mxPoint x="869" y="310" />
            </Array>
          </mxGeometry>
        </mxCell>
        <mxCell id="f2Sus05H8nMFdNZAMqv4-32" value="&lt;font style=&quot;font-size: 11px&quot;&gt;Redirection request &lt;br&gt;for Long URL&lt;/font&gt;" style="text;html=1;resizable=0;autosize=1;align=center;verticalAlign=middle;points=[];fillColor=none;strokeColor=none;rounded=0;dashed=1;labelBorderColor=none;rotation=270;" vertex="1" parent="1">
          <mxGeometry x="694" y="383" width="110" height="30" as="geometry" />
        </mxCell>
        <mxCell id="f2Sus05H8nMFdNZAMqv4-33" value="&lt;font style=&quot;font-size: 11px&quot;&gt;Static Content fetching&lt;br&gt;&amp;nbsp;for the Website&lt;/font&gt;" style="text;html=1;resizable=0;autosize=1;align=center;verticalAlign=middle;points=[];fillColor=none;strokeColor=none;rounded=0;dashed=1;labelBorderColor=none;rotation=270;" vertex="1" parent="1">
          <mxGeometry x="860" y="225" width="130" height="30" as="geometry" />
        </mxCell>
        <mxCell id="f2Sus05H8nMFdNZAMqv4-34" value="&lt;font style=&quot;font-size: 11px&quot;&gt;DNS resolution&lt;/font&gt;" style="text;html=1;resizable=0;autosize=1;align=center;verticalAlign=middle;points=[];fillColor=none;strokeColor=none;rounded=0;dashed=1;labelBorderColor=none;rotation=270;" vertex="1" parent="1">
          <mxGeometry x="206" y="259.65999999999997" width="90" height="20" as="geometry" />
        </mxCell>
        <mxCell id="f2Sus05H8nMFdNZAMqv4-35" value="" style="edgeStyle=elbowEdgeStyle;rounded=0;orthogonalLoop=1;jettySize=auto;html=1;fontSize=9;startArrow=none;startFill=0;exitX=1;exitY=0.5;exitDx=0;exitDy=0;exitPerimeter=0;entryX=0.551;entryY=1.001;entryDx=0;entryDy=0;entryPerimeter=0;" edge="1" parent="1" source="f2Sus05H8nMFdNZAMqv4-12" target="f2Sus05H8nMFdNZAMqv4-5">
          <mxGeometry relative="1" as="geometry">
            <mxPoint x="405.00315" y="351.27972000000017" as="sourcePoint" />
            <mxPoint x="437.2499999999999" y="351.11000000000007" as="targetPoint" />
          </mxGeometry>
        </mxCell>
        <mxCell id="f2Sus05H8nMFdNZAMqv4-36" value="&lt;font style=&quot;font-size: 11px&quot;&gt;HTTP(S) request&lt;/font&gt;" style="text;html=1;resizable=0;autosize=1;align=center;verticalAlign=middle;points=[];fillColor=none;strokeColor=none;rounded=0;dashed=1;labelBorderColor=none;rotation=270;" vertex="1" parent="1">
          <mxGeometry x="200" y="418" width="100" height="20" as="geometry" />
        </mxCell>
        <mxCell id="f2Sus05H8nMFdNZAMqv4-37" value="&lt;span style=&quot;font-size: 11px&quot;&gt;URL Shortening Request&lt;/span&gt;" style="text;html=1;resizable=0;autosize=1;align=center;verticalAlign=middle;points=[];fillColor=none;strokeColor=none;rounded=0;dashed=1;labelBorderColor=none;rotation=0;" vertex="1" parent="1">
          <mxGeometry x="773" y="292" width="140" height="20" as="geometry" />
        </mxCell>
      </root>
    </mxGraphModel>
  </diagram>
</mxfile>
